<svg xmlns="http://www.w3.org/2000/svg" xml:space="preserve" width="1000px" height="753px" version="1.1" style="shape-rendering:geometricPrecision; text-rendering:geometricPrecision; image-rendering:optimizeQuality; fill-rule:evenodd; clip-rule:evenodd"
viewBox="0 0 1000 753.31">
 <g>
  <path d="M1000 46.09l-409.08 518.15 -34.4 -70.98 350.28 -430.45 -554.91 8.28 -34.4 -70.98 660.17 -0.11 22.34 46.09zm-225.22 96.64l-243.28 298.91 -30.83 -63.6 169.23 -200.41 -262.16 8.68 -30.83 -63.6 385.36 -5.79 12.51 25.81zm-774.78 564.49l409.08 -518.14 34.4 70.97 -350.28 430.46 554.91 -8.29 34.4 70.98 -660.17 0.11 -22.34 -46.09zm225.22 -96.64l243.28 -298.91 30.83 63.6 -169.23 200.41 262.16 -8.68 30.83 63.6 -385.36 5.79 -12.51 -25.81z"/>
 </g>
</svg>
